<?xml version="1.0" encoding="UTF-8"?>
<svg version="1.1" xmlns="http://www.w3.org/2000/svg" width="512" height="512">
<path d="M0 0 C2.36947677 1.55241581 2.89710324 2.69922484 3.8125 5.375 C4.03379405 8.47311672 3.37791902 10.24416195 2 13 C1.67 13.33 1.34 13.66 1 14 C0.8353355 17.49454669 0.74504709 20.98674895 0.671875 24.484375 C0 28 0 28 -2.52734375 30.40234375 C-5.60038768 33.63073903 -5.53148565 35.19370618 -5.43945312 39.48242188 C-5.39755859 40.25134766 -5.35566406 41.02027344 -5.3125 41.8125 C-5.27866211 42.99489258 -5.27866211 42.99489258 -5.24414062 44.20117188 C-5.18554161 46.13493929 -5.09586827 48.06772167 -5 50 C-4.071875 50.0928125 -4.071875 50.0928125 -3.125 50.1875 C-1 51 -1 51 0.25 53.5625 C0.4975 54.366875 0.745 55.17125 1 56 C1.0093457 55.41508789 1.01869141 54.83017578 1.02832031 54.22753906 C1.08213279 51.5675142 1.16575449 48.90922778 1.25 46.25 C1.26417969 45.32960938 1.27835937 44.40921875 1.29296875 43.4609375 C1.54375645 36.53919692 1.54375645 36.53919692 4.01953125 33.61328125 C4.67308594 33.08089844 5.32664062 32.54851562 6 32 C6.70882303 29.09215119 6.33971789 27.057461 6 24 C5.0206121 22.97980427 4.02104551 21.97850195 3 21 C2.6068537 17.39615894 2.60656671 14.90258224 4.0625 11.5625 C6 10 6 10 9.5 9.5 C13 10 13 10 14.9375 11.625 C16.28373354 14.63422792 16.34745351 16.73393703 16 20 C15.01 21.485 15.01 21.485 14 23 C13.34 23 12.68 23 12 23 C12.04640625 23.89203125 12.0928125 24.7840625 12.140625 25.703125 C12.17671875 26.87359375 12.2128125 28.0440625 12.25 29.25 C12.29640625 30.41015625 12.3428125 31.5703125 12.390625 32.765625 C12 36 12 36 10.01367188 37.8359375 C7.42792394 40.61480143 7.4671245 42.11089929 7.390625 45.859375 C7.35839844 46.97441406 7.32617188 48.08945312 7.29296875 49.23828125 C7.27878906 50.39714844 7.26460938 51.55601562 7.25 52.75 C7.20552734 54.51150391 7.20552734 54.51150391 7.16015625 56.30859375 C7.08949273 59.20579822 7.03677734 62.10219955 7 65 C8.65 64.34 10.3 63.68 12 63 C12.02578125 62.10796875 12.0515625 61.2159375 12.078125 60.296875 C12.16320312 58.54117188 12.16320312 58.54117188 12.25 56.75 C12.29640625 55.58984375 12.3428125 54.4296875 12.390625 53.234375 C13.1018603 49.45935689 14.24985824 48.5385924 17 46 C17.67376887 43.28370345 17.5015281 40.74700617 17 38 C16.01268258 36.65724831 15.01405257 35.32267727 14 34 C14 30.9375 14 30.9375 15 28 C17.1875 26 17.1875 26 20 25 C25.2 26.2 25.2 26.2 27 28 C27.27314815 33.73611111 27.27314815 33.73611111 27 36 C26.01 36.99 26.01 36.99 25 38 C24.68791573 40.30189984 24.68791573 40.30189984 24.625 42.875 C24.26835784 47.4981391 23.38547673 48.82611557 20 52 C19.34952536 54.69632231 19.18560232 57.21596518 19 60 C19.57105469 60.08894531 20.14210938 60.17789063 20.73046875 60.26953125 C25.16997272 61.69842495 28.26330808 65.33756291 31 69 C31.125 72.0625 31.125 72.0625 30 75 C28.54824027 79.59723916 27.86559381 82.32656605 29 87 C29.85464844 87.20496094 30.70929688 87.40992188 31.58984375 87.62109375 C32.69457031 87.89050781 33.79929687 88.15992188 34.9375 88.4375 C36.03964844 88.70433594 37.14179688 88.97117187 38.27734375 89.24609375 C41 90 41 90 42 91 C42.07325168 93.86267567 42.09238205 96.700719 42.0625 99.5625 C42.05798828 100.36880859 42.05347656 101.17511719 42.04882812 102.00585938 C42.03700518 104.00393756 42.01906914 106.00197783 42 108 C40.3767313 108.6708712 38.75132422 109.33657029 37.125 110 C36.22007812 110.37125 35.31515625 110.7425 34.3828125 111.125 C32 112 32 112 30 112 C28.84799164 116.60803346 28.68846528 118.96815752 31 123.1875 C31.391875 123.82042969 31.78375 124.45335937 32.1875 125.10546875 C33 127 33 127 32.87890625 128.91015625 C31.67400492 131.77514386 29.91748549 133.86144607 27.9375 136.25 C27.20402344 137.14203125 26.47054687 138.0340625 25.71484375 138.953125 C24.86599609 139.96632813 24.86599609 139.96632813 24 141 C22.02 140.67 20.04 140.34 18 140 C18 139.34 18 138.68 18 138 C16.7625 137.814375 15.525 137.62875 14.25 137.4375 C13.55390625 137.33308594 12.8578125 137.22867188 12.140625 137.12109375 C9.87361944 136.99285073 8.16150043 137.34278703 6 138 C5.79503906 138.77085937 5.59007812 139.54171875 5.37890625 140.3359375 C5.10949219 141.33882812 4.84007812 142.34171875 4.5625 143.375 C4.29566406 144.37273437 4.02882813 145.37046875 3.75390625 146.3984375 C3 149 3 149 2 151 C-3.61 151 -9.22 151 -15 151 C-19 142.25 -19 142.25 -19 140 C-19.66 140 -20.32 140 -21 140 C-21 139.34 -21 138.68 -21 138 C-23.31 138 -25.62 138 -28 138 C-28 138.66 -28 139.32 -28 140 C-33.28 143 -33.28 143 -36.0625 143 C-38.93995514 141.51486187 -40.80517039 139.35944183 -43 137 C-43.78375 136.360625 -44.5675 135.72125 -45.375 135.0625 C-47 133 -47 133 -46.875 130.0625 C-46 127 -46 127 -44.875 124.4375 C-43.82214906 121.50455811 -44.12250379 119.95157815 -45 117 C-45.87121196 114.70024295 -45.87121196 114.70024295 -48.72265625 113.9296875 C-49.82480469 113.58164062 -50.92695313 113.23359375 -52.0625 112.875 C-54.021875 112.25625 -55.98125 111.6375 -58 111 C-58 105.39 -58 99.78 -58 94 C-53.30988363 91.65494181 -50.90696232 90.58416218 -46 90 C-44.85240811 85.40963244 -44.67409822 83.06480936 -47 78.875 C-47.391875 78.25367188 -47.78375 77.63234375 -48.1875 76.9921875 C-49.31481442 74.22809926 -48.96245068 72.80498014 -48 70 C-46.2578125 67.76171875 -46.2578125 67.76171875 -44.125 65.6875 C-43.42632812 64.99011719 -42.72765625 64.29273438 -42.0078125 63.57421875 C-40 62 -40 62 -37 62 C-36.94805032 55.40656856 -36.94805032 55.40656856 -40 50 C-42.88240383 47.11759617 -42.52639519 44.39322084 -42.62890625 40.4375 C-43.07068458 37.53571392 -44.21553312 36.27673361 -46 34 C-46 30.9375 -46 30.9375 -45 28 C-42.8125 26 -42.8125 26 -40 25 C-34.8 26.2 -34.8 26.2 -33 28 C-32.85884839 30.67058851 -32.95752893 33.32432238 -33 36 C-34.32 36.66 -35.64 37.32 -37 38 C-36.80765878 41.35278304 -36.80765878 41.35278304 -36 45 C-35.3296875 45.5671875 -34.659375 46.134375 -33.96875 46.71875 C-31.13600861 50.00113288 -31.56110349 53.13786837 -31.75 57.25 C-31.76804688 57.99507813 -31.78609375 58.74015625 -31.8046875 59.5078125 C-31.85164351 61.33909701 -31.92338348 63.16971649 -32 65 C-28.535 65.495 -28.535 65.495 -25 66 C-25.05181967 61.74900017 -25.1468872 57.5000407 -25.25 53.25 C-25.26417969 52.0434375 -25.27835938 50.836875 -25.29296875 49.59375 C-25.32519531 48.43359375 -25.35742188 47.2734375 -25.390625 46.078125 C-25.41157227 45.00981445 -25.43251953 43.94150391 -25.45410156 42.84082031 C-26.1213938 39.36827447 -27.42739461 38.32558486 -30 36 C-30.50390625 33.08984375 -30.50390625 33.08984375 -30.5625 29.9375 C-30.46849636 25.74389314 -30.46849636 25.74389314 -32.51171875 22.3515625 C-33.00285156 21.90554688 -33.49398437 21.45953125 -34 21 C-34.43076923 14.86153846 -34.43076923 14.86153846 -33 12 C-32.34 12 -31.68 12 -31 12 C-31 11.34 -31 10.68 -31 10 C-27.6875 9.6875 -27.6875 9.6875 -24 10 C-22 12.0625 -22 12.0625 -21 15 C-21.3125 18.8125 -21.3125 18.8125 -22 22 C-22.99 22.33 -23.98 22.66 -25 23 C-24.93952782 24.58437117 -24.85061054 26.16767058 -24.75 27.75 C-24.70359375 28.63171875 -24.6571875 29.5134375 -24.609375 30.421875 C-24.22034477 33.14193886 -24.22034477 33.14193886 -22 34.84375 C-19.19520277 37.86767201 -19.33172051 40.81998652 -19.25 44.75 C-19.22035156 45.44738281 -19.19070312 46.14476562 -19.16015625 46.86328125 C-19.08981542 48.57490813 -19.04260054 50.28745815 -19 52 C-18.67 51.67 -18.34 51.34 -18 51 C-16.00041636 50.95919217 -13.99954746 50.95745644 -12 51 C-12.02618408 50.38479492 -12.05236816 49.76958984 -12.0793457 49.13574219 C-12.18345921 46.34075592 -12.24836749 43.54617742 -12.3125 40.75 C-12.35439453 39.78191406 -12.39628906 38.81382812 -12.43945312 37.81640625 C-12.48588445 35.12338927 -12.47868917 32.65185834 -12 30 C-9.51171875 27.7109375 -9.51171875 27.7109375 -7 26 C-6.28672026 23.03550782 -6.28672026 23.03550782 -6.5 19.875 C-6.5103125 18.82054687 -6.520625 17.76609375 -6.53125 16.6796875 C-6.6859375 15.79539062 -6.840625 14.91109375 -7 14 C-7.99 13.34 -8.98 12.68 -10 12 C-11 8.6875 -11 8.6875 -11 5 C-7.87691565 0.55197078 -5.41952768 -0.94252655 0 0 Z M-4 6 C-4 6.66 -4 7.32 -4 8 C-3.34 8 -2.68 8 -2 8 C-2 7.34 -2 6.68 -2 6 C-2.66 6 -3.32 6 -4 6 Z M-28 16 C-28.33 16.66 -28.66 17.32 -29 18 C-28.34 18 -27.68 18 -27 18 C-27.33 17.34 -27.66 16.68 -28 16 Z M9 16 C9 19 9 19 9 19 Z M-40 31 C-40 31.66 -40 32.32 -40 33 C-39.34 33 -38.68 33 -38 33 C-38 32.34 -38 31.68 -38 31 C-38.66 31 -39.32 31 -40 31 Z M20 31 C20 31.66 20 32.32 20 33 C20.66 33 21.32 33 22 33 C22 32.34 22 31.68 22 31 C21.34 31 20.68 31 20 31 Z M-11 67 C-10.34 67.66 -9.68 68.32 -9 69 C-9 68.34 -9 67.68 -9 67 C-9.66 67 -10.32 67 -11 67 Z M-22.8125 90 C-26.3953253 94.91358898 -26.72493848 100.0393947 -26 106 C-23.98405473 111.60958685 -20.21317999 115.13689564 -15.140625 118.078125 C-10.56795721 120.04737609 -5.38266973 119.88782321 -0.74609375 118.16015625 C4.34722269 115.28972934 7.87668505 111.47540014 10 106 C11.05328838 100.11576394 10.02613195 95.17370947 7 90 C2.34043822 85.22179197 -0.99542713 82.84712299 -7.75 82.6875 C-14.75063645 82.76277566 -18.20946924 84.87685277 -22.8125 90 Z " fill="#FFFFFF" transform="translate(264,245)"/>
<path d="M0 0 C0.66 1.65 1.32 3.3 2 5 C5.96 5 9.92 5 14 5 C14.66 3.68 15.32 2.36 16 1 C16.33 0.67 16.66 0.34 17 0 C21.58477988 0.44948822 25.6789261 1.4191193 30 3 C30.02578125 3.61488281 30.0515625 4.22976562 30.078125 4.86328125 C30.13484375 5.67152344 30.1915625 6.47976562 30.25 7.3125 C30.29640625 8.11300781 30.3428125 8.91351563 30.390625 9.73828125 C30.84121527 12.12338577 30.84121527 12.12338577 32.73828125 13.8359375 C35.57963854 15.29832865 36.85447146 14.98231051 39.9375 14.3125 C44.50313398 13.66508366 44.50313398 13.66508366 46.76171875 15.1875 C48.58177464 17.3569649 50 19.09008268 50 22 C50.66 22 51.32 22 52 22 C52 23.65 52 25.3 52 27 C51.34 27 50.68 27 50 27 C48.56399792 30.35067151 47.94563099 32.53786338 48.375 36.1875 C50.47518443 39.8224346 52.42669818 40.34919125 56.3203125 41.5546875 C56.87460937 41.70164063 57.42890625 41.84859375 58 42 C58 44.64 58 47.28 58 50 C48.43 50 38.86 50 29 50 C28.505 46.535 28.505 46.535 28 43 C27.34 42.01 26.68 41.02 26 40 C26 38.68 26 37.36 26 36 C24.515 35.505 24.515 35.505 23 35 C23 34.34 23 33.68 23 33 C21.67741528 32.31225595 20.34013497 31.65288627 19 31 C17.9275 30.46375 16.855 29.9275 15.75 29.375 C10.81837454 27.56673733 6.71796003 26.91866106 1.8203125 28.8671875 C0.4505607 29.5545721 -0.90450117 30.27252703 -2.23828125 31.02734375 C-4 32 -4 32 -7 33 C-7.33 33.99 -7.66 34.98 -8 36 C-8.66 36 -9.32 36 -10 36 C-10.144375 36.969375 -10.28875 37.93875 -10.4375 38.9375 C-11 42 -11 42 -12 43 C-12.33 45.31 -12.66 47.62 -13 50 C-22.57 50 -32.14 50 -42 50 C-42 47.36 -42 44.72 -42 42 C-41.44570312 41.87625 -40.89140625 41.7525 -40.3203125 41.625 C-35.89261505 40.43606437 -35.89261505 40.43606437 -32.953125 37.16015625 C-32.04653053 33.87068848 -31.73571191 31.75510882 -32.875 28.5 C-33.24625 28.005 -33.6175 27.51 -34 27 C-34.66 27 -35.32 27 -36 27 C-36 25.35 -36 23.7 -36 22 C-35.34 22 -34.68 22 -34 22 C-33.731875 21.4225 -33.46375 20.845 -33.1875 20.25 C-31.93021001 17.86776633 -30.85737247 15.96195425 -29 14 C-26.66015625 13.93359375 -26.66015625 13.93359375 -24.0625 14.4375 C-20.95334491 15.03306968 -19.57489047 15.29684534 -16.73046875 13.828125 C-14.60454957 11.58223295 -14.42687235 10.36354803 -14.25 7.3125 C-14.19328125 6.50425781 -14.1365625 5.69601563 -14.078125 4.86328125 C-14.05234375 4.24839844 -14.0265625 3.63351563 -14 3 C-9.07015675 0.96006486 -5.42039575 -0.40652968 0 0 Z " fill="#FCFCFC" transform="translate(248,133)"/>
<path d="M0 0 C2.64 0 5.28 0 8 0 C8 5.28 8 10.56 8 16 C4.37 16 0.74 16 -3 16 C-2.9129348 19.56366857 -2.80603115 23.1248562 -2.6875 26.6875 C-2.66494141 27.69490234 -2.64238281 28.70230469 -2.61914062 29.74023438 C-2.4261198 35.05708073 -2.19033382 38.56612208 1 43 C0.93629305 46.69500327 0.73799445 49.0160074 -1.5 52 C-5.30153 53.520612 -9.09991646 53.18960077 -13 52 C-15.06520632 48.90219052 -15.29477024 48.0459519 -15.3125 44.5 C-15.32925781 43.7265625 -15.34601563 42.953125 -15.36328125 42.15625 C-15 40 -15 40 -13.50927734 38.7800293 C-11.24106077 36.1049133 -11.56382611 33.82323602 -11.48828125 30.36328125 C-11.45283203 29.06455078 -11.41738281 27.76582031 -11.38085938 26.42773438 C-11.3577595 25.05599483 -11.3349771 23.6842499 -11.3125 22.3125 C-11.27932458 20.92900393 -11.24483469 19.54553871 -11.20898438 18.16210938 C-11.12636759 14.77482117 -11.05725942 11.38779643 -11 8 C-7.37 8 -3.74 8 0 8 C0 5.36 0 2.72 0 0 Z M-8 44 C-7 46 -7 46 -7 46 Z " fill="#FDFDFD" transform="translate(238,177)"/>
<path d="M0 0 C3.54132482 1.87304765 6.33937915 4.05746013 7.65625 7.9296875 C8.53459872 13.21974229 8.74747181 17.50505638 6.3125 22.375 C3.30095388 25.79351181 1.28773267 27.68960411 -3.33203125 28.31640625 C-9.04951809 28.58213652 -12.60250453 27.96847152 -17 24 C-20.22191921 20.24109426 -20.41220534 16.90888099 -20.21484375 12.140625 C-19.77085135 7.71684617 -18.48998109 5.58024076 -15.625 2.1875 C-11.05437161 -1.33873418 -5.44622511 -1.0411901 0 0 Z M-10.3125 8.6875 C-11.97864536 10.97073623 -12.8248453 12.19752484 -13 15 C-12.00974907 17.66606019 -11.5722047 18.71389765 -9 20 C-4.82683426 20.42842753 -4.82683426 20.42842753 -1.1875 18.6875 C0.19455846 16.89523775 0.19455846 16.89523775 1 14 C0.05893153 10.78412726 0.05893153 10.78412726 -2 8 C-5.66752368 6.59541646 -7.09658064 6.34074803 -10.3125 8.6875 Z " fill="#FFFFFF" transform="translate(262,332)"/>
<path d="M0 0 C2.64 0 5.28 0 8 0 C8 4.29 8 8.58 8 13 C5.36 13 2.72 13 0 13 C0 15.31 0 17.62 0 20 C1.2065625 20.433125 1.2065625 20.433125 2.4375 20.875 C5 22 5 22 6 24 C6.44198895 30.85082873 6.44198895 30.85082873 5.0625 34.4375 C1.69169697 36.99113866 -1.8352061 37.40845614 -6 37 C-9.0625 35.0625 -9.0625 35.0625 -11 32 C-11.63916373 28.12741978 -11.2446713 24.73401389 -10 21 C-9.01 21 -8.02 21 -7 21 C-7 15.72 -7 10.44 -7 5 C-4.69 5 -2.38 5 0 5 C0 3.35 0 1.7 0 0 Z " fill="#FBFBFB" transform="translate(298,186)"/>
<path d="M0 0 C4.29 0 8.58 0 13 0 C13 7.26 13 14.52 13 22 C13.66 22 14.32 22 15 22 C15 22.66 15 23.32 15 24 C15.66 24 16.32 24 17 24 C17 24.66 17 25.32 17 26 C17.66 26 18.32 26 19 26 C19 28.64 19 31.28 19 34 C15.09493076 36.68473511 12.50471096 38.41305648 7.6875 37.9375 C4 37 4 37 2 34 C1.69921875 31.84375 1.69921875 31.84375 1.6875 29.5 C1.67074219 28.7265625 1.65398437 27.953125 1.63671875 27.15625 C2 25 2 25 3.4765625 23.69921875 C5.90010226 20.99603979 5.57418479 17.77994542 5.6875 14.3125 C5.72166016 13.61060547 5.75582031 12.90871094 5.79101562 12.18554688 C5.87329947 10.45758613 5.9383324 8.72881928 6 7 C4.02 7 2.04 7 0 7 C0 4.69 0 2.38 0 0 Z " fill="#FBFBFB" transform="translate(238,204)"/>
<path d="M0 0 C2.31 0 4.62 0 7 0 C7 2.64 7 5.28 7 8 C10.96 8 14.92 8 19 8 C19 10.97 19 13.94 19 17 C20.32 17.66 21.64 18.32 23 19 C24.54586876 22.09173752 24.29359521 24.59429552 24 28 C21.93897329 31.0122698 20.55618468 31.83432797 17.0625 32.875 C13.72733691 33.01112911 11.88910803 32.65091887 9 31 C7.50915168 26.52745503 7.50915168 22.47254497 9 18 C9.99 17.01 10.98 16.02 12 15 C8.04 15 4.08 15 0 15 C0 10.05 0 5.1 0 0 Z " fill="#FCFCFC" transform="translate(265,177)"/>
<path d="M0 0 C2.64 0 5.28 0 8 0 C8 6.93 8 13.86 8 21 C8.99 21.33 9.98 21.66 11 22 C13.01533913 24.61994087 12.99724596 26.15422643 12.9375 29.5 C12 33 12 33 9.8125 35.4375 C6.45611204 37.30215998 4.7822566 37.6303761 1 37 C-2.74785043 34.91786087 -3.79482295 33.7052961 -5 29.5625 C-5 25.64970748 -4.45661059 24.00252405 -2 21 C-1.34 21 -0.68 21 0 21 C0 14.07 0 7.14 0 0 Z " fill="#FDFDFD" transform="translate(252,168)"/>
<path d="M0 0 C2.31 0 4.62 0 7 0 C7 1.65 7 3.3 7 5 C9.64 5 12.28 5 15 5 C15.03738281 5.83144531 15.07476562 6.66289062 15.11328125 7.51953125 C15.17902344 8.60621094 15.24476563 9.69289062 15.3125 10.8125 C15.39951172 12.43091797 15.39951172 12.43091797 15.48828125 14.08203125 C16.05718833 17.32610445 16.70095813 17.84616078 19 20 C19.86672198 24.23991022 19.70069294 27.89506113 17.375 31.5625 C14.27898066 33.43640644 12.57027167 33.51003881 9 33 C4.36764706 30.73529412 4.36764706 30.73529412 3 28 C2.6875 24.625 2.6875 24.625 3 21 C4.9375 18.8125 4.9375 18.8125 7 17 C7.7872678 14.8618034 7.7872678 14.8618034 8 13 C5.36 13 2.72 13 0 13 C0 8.71 0 4.42 0 0 Z " fill="#FDFDFD" transform="translate(259,205)"/>
<path d="M0 0 C2.97 0 5.94 0 9 0 C9.12375 2.0728125 9.12375 2.0728125 9.25 4.1875 C9.6108423 7.69751148 9.80048233 8.75940516 12.125 11.5625 C14.29643479 14.38536523 14.18703607 14.93432931 13.75 18.3125 C13.5025 19.529375 13.255 20.74625 13 22 C12.34 22 11.68 22 11 22 C10.67 22.99 10.34 23.98 10 25 C8.39667209 25.08121924 6.79215974 25.13929134 5.1875 25.1875 C3.84751953 25.23970703 3.84751953 25.23970703 2.48046875 25.29296875 C0 25 0 25 -1.76953125 23.69921875 C-3.79602053 20.90073355 -3.88286328 18.39696497 -4 15 C-3.00664799 13.32936253 -2.00568242 11.66324401 -1 10 C-0.44136306 6.67892903 -0.18924007 3.36064254 0 0 Z M5 16 C6 18 6 18 6 18 Z " fill="#FDFDFD" transform="translate(210,186)"/>
</svg>
